<svg id="Layer_1" data-name="Layer 1" xmlns="http://www.w3.org/2000/svg" viewBox="0 0 282.27 260.01"><defs><style>.cls-1,.cls-2{fill:#dce2e8;}.cls-11,.cls-12,.cls-15,.cls-16,.cls-2,.cls-4,.cls-5,.cls-8{stroke:#2e3e49;}.cls-11,.cls-12,.cls-15,.cls-16,.cls-2,.cls-4,.cls-5,.cls-6,.cls-8{stroke-linecap:round;stroke-linejoin:round;stroke-width:3.5px;}.cls-3,.cls-4,.cls-6{fill:#fff;}.cls-13,.cls-5{fill:#ebc81b;}.cls-6{stroke:#06b3e3;}.cls-7,.cls-8{fill:#3dbeb3;}.cls-16,.cls-9{fill:#fafbfc;}.cls-10{fill:#2e3e49;}.cls-11{fill:#06b3e3;}.cls-12,.cls-14{fill:#f15e3e;}.cls-15{fill:none;}</style></defs><title>wallet</title><circle class="cls-1" cx="147.97" cy="130" r="130"/><rect class="cls-2" x="15.53" y="83.31" width="264.99" height="143.49"/><rect class="cls-3" x="15.53" y="75.82" width="264.99" height="143.49"/><rect class="cls-1" x="156.79" y="134.8" width="114.83" height="14"/><rect class="cls-1" x="156.79" y="169.8" width="114.83" height="14"/><path class="cls-1" d="M632.8,445.18a14.63,14.63,0,0,1-14.62,14.63h-37.4c-0.29,0-.57,0-0.85,0v-29.2c0.28,0,.56,0,0.85,0h37.4A14.63,14.63,0,0,1,632.8,445.18Z" transform="translate(-564.41 -275.08)"/><rect class="cls-4" x="15.53" y="75.82" width="264.99" height="143.49"/><rect class="cls-2" x="30.7" y="140.3" width="102.33" height="64"/><rect class="cls-5" x="39.13" y="150.8" width="43.5" height="44.67"/><rect class="cls-2" x="15.53" y="75.81" width="264.99" height="33.49"/><line class="cls-4" x1="147.97" y1="226.8" x2="147.97" y2="109.5"/><rect class="cls-6" x="25.13" y="48.47" width="245" height="61.09"/><rect class="cls-7" x="25.13" y="48.47" width="245" height="61.09"/><rect class="cls-6" x="599.53" y="299.84" width="225.41" height="56.21" transform="translate(-578.39 -242.84) rotate(-2.57)"/><rect class="cls-7" x="599.53" y="299.84" width="225.41" height="56.21" transform="translate(-578.39 -242.84) rotate(-2.57)"/><rect class="cls-2" x="599.53" y="299.84" width="225.41" height="56.21" transform="translate(-578.39 -242.84) rotate(-2.57)"/><path class="cls-8" d="M810.21,332.34l0.87,19.3-194.71,8.73-0.87-19.3a23,23,0,0,0,22-24L786,310.37a23,23,0,0,0,24,22h0.17Z" transform="translate(-564.41 -275.08)"/><path class="cls-2" d="M755.09,354.15l-82.56,3.7A42.32,42.32,0,0,1,755.09,354.15Z" transform="translate(-564.41 -275.08)"/><path class="cls-4" d="M637.49,317l-23,1,1,23A23,23,0,0,0,637.49,317Z" transform="translate(-564.41 -275.08)"/><path class="cls-4" d="M786,310.36a23,23,0,0,0,24.05,22h0.16l-1-23Z" transform="translate(-564.41 -275.08)"/><rect class="cls-2" x="25.13" y="46.97" width="245" height="62.59"/><rect class="cls-2" x="1.75" y="146.97" width="66.65" height="29.26" rx="14.63" ry="14.63"/><circle class="cls-9" cx="52.79" cy="161.6" r="7.72"/><path class="cls-10" d="M617.2,430.71a6,6,0,1,1-6,6,6,6,0,0,1,6-6m0-3.5a9.47,9.47,0,1,0,9.47,9.47,9.47,9.47,0,0,0-9.47-9.47h0Z" transform="translate(-564.41 -275.08)"/><path class="cls-11" d="M173.81,124.8H255.1a10.52,10.52,0,0,1,10.52,10.52V148.8a0,0,0,0,1,0,0H163.29a0,0,0,0,1,0,0V135.32A10.52,10.52,0,0,1,173.81,124.8Z"/><path class="cls-12" d="M174.31,159.8H255.6a10.52,10.52,0,0,1,10.52,10.52V183.8a0,0,0,0,1,0,0H163.79a0,0,0,0,1,0,0V170.32A10.52,10.52,0,0,1,174.31,159.8Z"/><path class="cls-13" d="M751,422.63a10.18,10.18,0,0,0,.07,1.24H736c0-.41-0.06-0.82-0.06-1.24a12.74,12.74,0,0,1,20.27-10.3A12.71,12.71,0,0,0,751,422.63Z" transform="translate(-564.41 -275.08)"/><path class="cls-14" d="M776.51,422.63c0,0.42,0,.83-0.06,1.24h-15a10.18,10.18,0,0,0,.07-1.24,12.72,12.72,0,0,0-5.26-10.3,12.64,12.64,0,0,1,7.5-2.46A12.77,12.77,0,0,1,776.51,422.63Z" transform="translate(-564.41 -275.08)"/><path class="cls-9" d="M761.51,422.63a10.18,10.18,0,0,1-.07,1.24H751.05a10.18,10.18,0,0,1-.07-1.24,12.71,12.71,0,0,1,5.27-10.3A12.72,12.72,0,0,1,761.51,422.63Z" transform="translate(-564.41 -275.08)"/><polyline class="cls-4" points="273.12 148.79 212.04 148.79 197.03 148.79 186.65 148.79 171.63 148.79 155.96 148.79"/><line class="cls-4" x1="15.96" y1="124.8" x2="148.11" y2="124.8"/><line class="cls-4" x1="155.96" y1="183.8" x2="273.11" y2="183.8"/><rect class="cls-11" x="235.13" y="195.47" width="35" height="16.5"/><line class="cls-15" x1="91.87" y1="150.8" x2="121.13" y2="150.8"/><line class="cls-15" x1="91.87" y1="160.8" x2="121.13" y2="160.8"/><line class="cls-15" x1="91.87" y1="170.8" x2="111.13" y2="170.8"/><line class="cls-15" x1="92.37" y1="180.8" x2="101.63" y2="180.8"/><line class="cls-15" x1="92.37" y1="195.3" x2="111.63" y2="195.3"/><path class="cls-8" d="M818.21,363.63v21H606.37v-21a25,25,0,0,0,25-25H793a25,25,0,0,0,25,25h0.18Z" transform="translate(-564.41 -275.08)"/><path class="cls-16" d="M757.29,384.63H667.47A46,46,0,0,1,757.29,384.63Z" transform="translate(-564.41 -275.08)"/><path class="cls-7" d="M724.11,369.31a24.4,24.4,0,0,0-4.44-1.9,23.86,23.86,0,0,0-5.46-1v-3.09a2.31,2.31,0,0,0-.52-1.59,1.81,1.81,0,0,0-1.38-.55c-1.32,0-2,.72-2,2.14v3.09a17.72,17.72,0,0,0-5.78,1.54,15,15,0,0,0-4.52,3.25,14,14,0,0,0-2.93,4.75,18.21,18.21,0,0,0-.76,9.16h6.87a9.66,9.66,0,0,1-.64-3.65,8.6,8.6,0,0,1,2.09-6,8.86,8.86,0,0,1,5.67-2.81v12.44h3.88V372.64a14.74,14.74,0,0,1,3.52.71A30,30,0,0,1,721,374.7a3.55,3.55,0,0,0,1.82.47,2.78,2.78,0,0,0,2.18-1,3.29,3.29,0,0,0,.83-2.22A3.06,3.06,0,0,0,724.11,369.31Z" transform="translate(-564.41 -275.08)"/><path class="cls-4" d="M631.41,338.59h-25v25A25,25,0,0,0,631.41,338.59Z" transform="translate(-564.41 -275.08)"/><path class="cls-4" d="M793,338.59a25,25,0,0,0,25,25h0.18v-25H793Z" transform="translate(-564.41 -275.08)"/><line class="cls-4" x1="15.53" y1="110" x2="280.52" y2="110"/></svg>