<?xml version="1.0" encoding="utf-8"?>
<!-- Generator: Adobe Illustrator 19.2.1, SVG Export Plug-In . SVG Version: 6.00 Build 0)  -->
<svg version="1.1" id="Layer_1" xmlns="http://www.w3.org/2000/svg" xmlns:xlink="http://www.w3.org/1999/xlink" x="0px" y="0px"
	 viewBox="0 0 200 35" style="enable-background:new 0 0 200 35;" xml:space="preserve">
<style type="text/css">
	.st0{fill:#01B3E3;}
	.st1{fill:#2D3C49;}
</style>
<g>
	<path id="mark_3_" class="st0" d="M11.818,0L0,6.699l0.001,15.43l0,0C-0.021,29.216,5.775,34.978,12.946,35
		c2.371,0.007,4.596-0.614,6.512-1.706v0l9.573-5.436c3.776-1.936,6.362-5.83,6.376-10.326l0.001-16.115h0l0,0l-2.343-1.354
		l-9.599,5.36l0.001,0.001l0,0L23.464,22.2c-0.002,0.714-0.034,1.236-0.222,2.118c-0.32,1.345-0.77,2.291-0.849,2.451
		c-0.732-0.05-2.278-0.469-3.512-1.196c-0.616-0.354-1.349-0.879-2.01-1.497c-0.427-0.424-0.814-0.891-1.15-1.386
		c-0.339-0.5-0.631-1.034-0.865-1.587c-0.239-0.563-0.422-1.152-0.544-1.75c-0.125-0.615-0.153-1.249-0.152-1.884h0l0.008-16.114
		L11.818,0z M17.257,31.841c-0.641,0.266-1.311,0.469-1.993,0.605c-0.7,0.139-1.346,0.209-2.068,0.207
		c-0.722-0.002-1.443-0.076-2.143-0.22c-0.681-0.14-1.35-0.347-1.989-0.617c-0.628-0.265-1.234-0.592-1.801-0.973
		c-1.462-1.015-2.216-1.894-2.864-2.847c-0.382-0.562-0.709-1.163-0.974-1.785c-0.269-0.633-0.475-1.296-0.612-1.969
		c-0.141-0.692-0.167-1.405-0.165-2.119L2.647,8.039l8.862-5.345l-0.011,14.768h0c-0.017,5.612,4.164,10.296,9.503,11.428
		c-0.209,0.247-0.36,0.484-0.591,0.711c-0.483,0.474-1.004,0.918-1.568,1.292C18.273,31.27,17.886,31.58,17.257,31.841z
		 M32.607,19.436c-0.126,0.598-0.312,1.185-0.555,1.747c-0.644,1.412-1.692,2.612-2.568,3.385c-1.788,1.625-4.016,2.127-4.273,2.128
		c0.536-1.4,0.897-2.9,0.903-4.485l0,0L26.113,6.777h0l6.647-4.02l0.003,14.768C32.761,18.16,32.736,18.821,32.607,19.436z"/>
	<g id="wordmark_2_">
		<g>
			<path class="st1" d="M65.507,19.301c0,2.913-2.459,5.322-5.784,5.322c-3.325,0-5.722-2.409-5.722-5.322V8.876h-1.768v10.45
				c0,3.755,2.928,7.05,7.49,7.05c4.562,0,7.56-3.295,7.56-7.05V8.876h-1.775V19.301z M84.36,8.876h-5.566l0.002,17.063l5.755-0.001
				c5.143,0,8.413-3.153,8.413-8.545C92.963,12.05,89.502,8.876,84.36,8.876z M84.189,24.204l-3.624-0.015V10.626l3.624-0.005
				c4.191,0,7.019,2.618,7.019,6.772C91.208,21.756,88.405,24.204,84.189,24.204z M133.648,24.617c-4.069,0-7.004-3.325-7.004-7.37
				c0-3.995,2.934-7.077,6.955-7.077c3.217,0,5.215,1.878,5.215,1.878l0.902-1.227c0,0-2.071-2.198-6.166-2.198
				c-4.899,0-8.661,3.738-8.661,8.648c0,4.935,3.665,9.084,8.735,9.084c4.216,0,6.555-2.849,6.555-2.849l-0.975-1.18
				C139.204,22.327,137.109,24.617,133.648,24.617z M151.399,25.939h1.771V8.876h-1.771V25.939z M163.352,10.626h6.198
				l-0.001,15.312h1.772V10.626h6.198v-1.75h-14.167V10.626z M198.099,8.876l-5.493,7.861h-0.049l-5.547-7.861h-1.925l6.601,9.696
				l0,7.367h1.771v-7.367L200,8.876H198.099z M107.947,8.876l-6.983,17.049h1.847l1.848-4.563l7.772-1.574l2.498,6.138h1.847
				l-6.983-17.049H107.947z M105.436,19.48l3.41-8.265h0.048l2.88,6.981L105.436,19.48z"/>
		</g>
	</g>
</g>
</svg>
